<?xml version="1.0" encoding="UTF-8"?>
<svg xmlns="http://www.w3.org/2000/svg" xmlns:xlink="http://www.w3.org/1999/xlink" width="31px" height="32px" viewBox="0 0 31 31" version="1.1">
<g id="surface1">
<path style=" stroke:none;fill-rule:evenodd;fill:rgb(100%,100%,100%);fill-opacity:1;" d="M 16.957031 14.527344 C 14.957031 16.527344 13.3125 18.164062 13.300781 18.164062 C 13.289062 18.164062 12.636719 17.519531 11.847656 16.730469 C 11.058594 15.941406 10.398438 15.296875 10.386719 15.296875 C 10.332031 15.296875 8.507812 17.144531 8.507812 17.199219 C 8.507812 17.265625 13.234375 21.992188 13.300781 21.992188 C 13.328125 21.992188 13.511719 21.835938 13.707031 21.640625 C 13.902344 21.445312 15.878906 19.464844 18.101562 17.242188 C 20.324219 15.019531 22.234375 13.109375 22.347656 12.996094 L 22.550781 12.792969 L 22.320312 12.558594 C 21.734375 11.964844 20.644531 10.890625 20.621094 10.890625 C 20.609375 10.890625 18.960938 12.527344 16.957031 14.527344 "/>
<path style=" stroke:none;fill-rule:evenodd;fill:rgb(60%,72.156863%,23.529412%);fill-opacity:1;" d="M 14.378906 7.015625 C 11.46875 7.378906 8.914062 9.148438 7.554688 11.746094 C 5.886719 14.917969 6.28125 18.816406 8.550781 21.601562 C 9.109375 22.289062 10.550781 23.53125 10.785156 23.53125 C 10.804688 23.53125 10.820312 23.542969 10.820312 23.558594 C 10.820312 23.660156 12.167969 24.273438 12.878906 24.496094 C 15.800781 25.40625 19.242188 24.664062 21.4375 22.65625 C 21.503906 22.59375 21.628906 22.484375 21.710938 22.410156 C 23.414062 20.9375 24.570312 18.105469 24.480469 15.617188 C 24.410156 13.777344 23.59375 11.507812 22.601562 10.417969 C 22.550781 10.363281 22.507812 10.304688 22.5 10.289062 C 22.496094 10.277344 22.421875 10.183594 22.335938 10.089844 C 22.25 9.996094 22.113281 9.839844 22.03125 9.746094 C 21.898438 9.597656 21.488281 9.203125 21.464844 9.203125 C 21.460938 9.203125 21.40625 9.152344 21.339844 9.09375 C 21.273438 9.035156 21.199219 8.96875 21.171875 8.949219 C 19.242188 7.417969 16.78125 6.71875 14.378906 7.015625 M 21.367188 11.609375 C 21.765625 12.003906 22.191406 12.429688 22.320312 12.558594 L 22.550781 12.792969 L 22.347656 12.996094 C 22.234375 13.109375 20.324219 15.019531 18.101562 17.242188 C 15.878906 19.464844 13.902344 21.445312 13.707031 21.640625 C 13.511719 21.835938 13.328125 21.992188 13.300781 21.992188 C 13.234375 21.992188 8.507812 17.265625 8.507812 17.199219 C 8.507812 17.144531 10.332031 15.296875 10.386719 15.296875 C 10.398438 15.296875 11.058594 15.941406 11.847656 16.730469 C 12.636719 17.519531 13.289062 18.164062 13.300781 18.164062 C 13.3125 18.164062 14.957031 16.527344 16.957031 14.527344 C 18.960938 12.527344 20.609375 10.890625 20.621094 10.890625 C 20.636719 10.890625 20.972656 11.214844 21.367188 11.609375 "/>
</g>
</svg>
