<svg width="51" height="51" viewBox="0 0 51 51" fill="none" xmlns="http://www.w3.org/2000/svg">
<circle cx="25.5" cy="25.5" r="25.5" fill="#9EA2FF"/>
<path d="M34.9371 31.292C35.3131 30.788 35.6251 30.32 35.8731 29.888C36.1291 29.456 36.2571 29.056 36.2571 28.688C36.2571 28.24 36.1371 27.9 35.8971 27.668C35.6651 27.428 35.3131 27.308 34.8411 27.308C34.4091 27.308 34.0611 27.428 33.7971 27.668C33.5331 27.908 33.3131 28.2 33.1371 28.544L32.0211 27.944C32.3011 27.408 32.6691 26.956 33.1251 26.588C33.5811 26.22 34.1651 26.036 34.8771 26.036C35.7651 26.036 36.4451 26.268 36.9171 26.732C37.3891 27.188 37.6251 27.788 37.6251 28.532C37.6251 29.5 37.1451 30.572 36.1851 31.748L34.5531 33.812H37.9731V35H31.9731L34.9371 31.292Z" fill="white"/>
<g filter="url(#filter0_d_1_364)">
<circle cx="23" cy="23" r="8.5" stroke="white" shape-rendering="crispEdges"/>
</g>
<defs>
<filter id="filter0_d_1_364" x="10" y="14" width="26" height="26" filterUnits="userSpaceOnUse" color-interpolation-filters="sRGB">
<feFlood flood-opacity="0" result="BackgroundImageFix"/>
<feColorMatrix in="SourceAlpha" type="matrix" values="0 0 0 0 0 0 0 0 0 0 0 0 0 0 0 0 0 0 127 0" result="hardAlpha"/>
<feOffset dy="4"/>
<feGaussianBlur stdDeviation="2"/>
<feComposite in2="hardAlpha" operator="out"/>
<feColorMatrix type="matrix" values="0 0 0 0 0 0 0 0 0 0 0 0 0 0 0 0 0 0 0.25 0"/>
<feBlend mode="normal" in2="BackgroundImageFix" result="effect1_dropShadow_1_364"/>
<feBlend mode="normal" in="SourceGraphic" in2="effect1_dropShadow_1_364" result="shape"/>
</filter>
</defs>
</svg>
