<svg viewBox="12.381 10.005 22.318 28.779" width="22" height="20.779" xmlns="http://www.w3.org/2000/svg">
  <defs>
    <clipPath id="6b9648eff3">
      <path d="M 15 140.0625 L 795 140.0625 L 795 670 L 15 670 Z M 15 140.0625 " clip-rule="nonzero"></path>
    </clipPath>
  </defs>
  <g clip-path="url(#6b9648eff3)" style="" transform="matrix(0.054368, 0, 0, 0.054368, 3.513642, 2.364173)">
    <path d="M 794.277344 539.53125 C 767.507812 537.125 740.179688 538.605469 713.308594 538.460938 C 704.285156 538.410156 695.253906 538.363281 686.230469 538.316406 C 677.613281 538.269531 669.070312 538.898438 660.460938 539.09375 C 656.21875 539.195312 651.050781 539.472656 647.417969 536.898438 C 643.816406 534.34375 642.433594 529.597656 638.652344 527.238281 C 628.808594 521.078125 625.613281 536.207031 618.457031 538.996094 C 614.421875 540.566406 609.515625 539.117188 605.414062 538.582031 C 600.582031 537.957031 593.421875 537.613281 588.746094 536.191406 C 568.019531 529.875 560.3125 504.21875 546.308594 489.796875 C 537.960938 481.195312 527.667969 475.367188 516.597656 483.046875 C 507.738281 489.203125 500.890625 498.796875 494.144531 507.054688 C 487.171875 515.585938 480.121094 524.464844 471.316406 531.199219 C 462.207031 538.160156 453.023438 538.609375 442.003906 537.625 C 432.894531 536.816406 423.820312 536.804688 414.71875 536.15625 C 406.871094 535.585938 397.488281 533.828125 389.90625 536.835938 C 378.675781 541.289062 379.65625 559.0625 378.277344 568.890625 C 376.316406 582.886719 374.183594 596.851562 371.964844 610.804688 C 370.789062 581.789062 369.617188 552.773438 368.441406 523.765625 C 367.539062 501.414062 366.800781 479.054688 366.011719 456.703125 C 365.214844 434.074219 364.449219 411.449219 363.59375 388.824219 C 362.367188 356.335938 361.140625 323.84375 359.914062 291.355469 C 358.933594 265.34375 357.957031 239.328125 356.847656 213.320312 C 356.078125 195.351562 354.867188 177.390625 354.503906 159.410156 C 354.441406 156.230469 354.347656 153.046875 354.375 149.867188 C 354.417969 145.566406 355.1875 140.078125 348.945312 140.570312 C 342.207031 141.105469 344.242188 155.558594 343.910156 161.015625 C 343.492188 167.839844 343.074219 174.664062 342.65625 181.488281 C 341.933594 193.375 341.207031 205.253906 340.480469 217.136719 C 338.585938 248.195312 336.6875 279.246094 334.789062 310.300781 C 333.863281 325.445312 332.921875 340.582031 331.976562 355.722656 C 329.761719 391.164062 327.546875 426.605469 325.332031 462.050781 C 323.570312 490.222656 321.808594 518.402344 320.050781 546.578125 C 319.957031 548.074219 319.859375 549.570312 319.769531 551.066406 C 316.9375 545.421875 314.496094 538.566406 309.28125 534.605469 C 305.007812 531.355469 299.789062 531.824219 294.722656 531.914062 C 284.3125 532.105469 261.640625 533.429688 251.851562 529.292969 C 239.84375 524.214844 239.976562 503.796875 225.449219 502.929688 C 212.984375 502.183594 205.914062 516.289062 201.523438 525.800781 C 198.570312 532.191406 189.730469 531.375 183.546875 532.003906 C 175.53125 532.824219 167.472656 533.148438 159.421875 533.316406 C 154.484375 533.425781 149.546875 533.472656 144.609375 533.535156 C 129.304688 533.738281 114 534.695312 98.695312 534.898438 C 89.339844 535.023438 79.988281 535.898438 70.636719 536.027344 C 54.882812 536.242188 39.054688 537.972656 23.320312 537.777344 C 21.476562 537.753906 18.238281 537.050781 16.808594 538.667969 C 15 540.707031 16.285156 541.230469 18.390625 541.503906 C 25.988281 542.488281 33.492188 542.039062 39.742188 542.054688 C 61.492188 542.101562 83.238281 542.25 104.988281 542.339844 C 115.921875 542.382812 126.855469 542.378906 137.789062 542.339844 C 145.46875 542.316406 153.144531 542.304688 160.824219 542.265625 C 168.242188 542.226562 175.652344 542.0625 183.058594 541.675781 C 190.210938 541.300781 199.460938 541.582031 204.882812 536.039062 C 210.164062 530.640625 216.394531 503.246094 228.71875 513.628906 C 233.902344 517.996094 235.488281 525.921875 239.558594 531.234375 C 243.933594 536.953125 250.277344 539.707031 257.25 540.871094 C 265.582031 542.265625 284.082031 541.714844 292.515625 541.726562 C 294.617188 541.730469 296.765625 541.617188 298.863281 541.730469 C 304.035156 542.003906 306.148438 544.773438 308.550781 548.964844 C 311.441406 554.011719 314.371094 559.058594 317.125 564.179688 C 318.363281 566.488281 319.214844 569.945312 321.351562 571.53125 C 325.46875 574.578125 327.011719 569.375 327.15625 566.0625 C 327.648438 555.035156 328.414062 544.027344 329.144531 533.007812 C 330.5625 511.578125 331.992188 490.15625 333.402344 468.738281 C 337.261719 410.042969 341.160156 351.351562 344.839844 292.648438 C 345.878906 276.027344 346.9375 259.414062 348.074219 242.800781 C 349.457031 280.246094 350.785156 317.691406 352.238281 355.128906 C 354.453125 412.351562 356.625 469.566406 359.070312 526.773438 C 360.667969 564.074219 362.707031 601.351562 364.242188 638.660156 C 364.523438 645.507812 364.621094 652.375 364.898438 659.226562 C 364.996094 661.652344 364.597656 669.292969 368.269531 669.847656 C 371.511719 670.339844 372.445312 664.796875 372.71875 662.753906 C 374.644531 648.351562 376.769531 633.96875 378.839844 619.582031 C 381.757812 599.28125 385.90625 578.972656 387.523438 558.535156 C 387.886719 553.910156 387.484375 547.597656 392.609375 545.542969 C 397.488281 543.582031 404.152344 545.398438 409.382812 545.511719 C 414.761719 545.621094 420.140625 545.667969 425.519531 545.753906 C 437.707031 545.953125 450.828125 548.355469 462.707031 544.757812 C 475.210938 540.96875 484.683594 530.585938 492.835938 520.875 C 501.152344 510.960938 508.5 496.839844 519.988281 490.257812 C 532.804688 482.914062 544.328125 495.910156 551.726562 505.097656 C 559.65625 514.9375 564.503906 527.886719 574.820312 535.65625 C 580.277344 539.765625 586.863281 541.882812 593.535156 543.015625 C 600.046875 544.117188 610.003906 545.710938 616.617188 544.851562 C 623.300781 543.984375 625.191406 539.261719 629.058594 534.574219 C 633.359375 529.363281 636.636719 530.695312 640.476562 535.515625 C 646.996094 543.710938 654.832031 542.773438 664.324219 542.390625 C 699.058594 540.984375 733.882812 541.75 768.644531 541.824219 C 772.652344 541.832031 795.128906 543.53125 794.277344 539.53125 " fill-opacity="1" fill-rule="nonzero" style="fill: rgb(255, 255, 255);"></path>
  </g>
</svg>