<svg width="20" height="20" viewBox="0 0 20 20" fill="none" xmlns="http://www.w3.org/2000/svg">
<path d="M12.1249 0V2.7847H15.164L11.1581 6.764C10.034 6.03658 8.69418 5.61445 7.25558 5.61445C3.28317 5.61445 0.0625 8.83448 0.0625 12.8069C0.0624833 16.7793 3.28317 20 7.25558 20C11.228 20 14.448 16.7793 14.448 12.8069C14.448 11.297 13.983 9.89573 13.188 8.73873L17.1267 4.80005V7.8125H19.9114C19.9114 5.37125 19.9379 2.4349 19.9374 0H12.1249ZM7.25558 8.50958C9.62912 8.50958 11.5529 10.4334 11.5529 12.8069C11.5529 15.1804 9.62912 17.1049 7.25558 17.1049C4.88205 17.1049 2.95762 15.1804 2.95762 12.8069C2.95762 10.4334 4.88203 8.50958 7.25558 8.50958Z" fill="currentColor"/>
</svg>
