<svg width="25" height="22" viewBox="0 0 25 22" fill="none" xmlns="http://www.w3.org/2000/svg">
<g clip-path="url(#clip0_1_454)">
<path d="M8.9375 0C7.65273 0 6.58711 0.880859 6.28203 2.07109C6.24766 2.07109 6.22188 2.0625 6.1875 2.0625C4.6707 2.0625 3.4375 3.2957 3.4375 4.8125C3.4375 5.01875 3.46328 5.2207 3.51055 5.41406C2.25586 5.92969 1.375 7.15859 1.375 8.59375C1.375 9.13516 1.5125 9.63789 1.73164 10.0934C0.700391 10.6863 0 11.7863 0 13.0625C0 14.4934 0.876563 15.7223 2.12266 16.2379C2.08398 16.4355 2.0625 16.6375 2.0625 16.8438C2.0625 18.5539 3.44609 19.9375 5.15625 19.9375C5.33242 19.9375 5.5043 19.916 5.67188 19.8859C6.08437 21.1105 7.22734 22 8.59375 22C10.3039 22 11.6875 20.6164 11.6875 18.9062V2.75C11.6875 1.2332 10.4543 0 8.9375 0ZM24.75 13.0625C24.75 11.7863 24.0496 10.6863 23.0184 10.0934C23.2418 9.63789 23.375 9.13516 23.375 8.59375C23.375 7.15859 22.4941 5.92969 21.2395 5.41406C21.2824 5.2207 21.3125 5.01875 21.3125 4.8125C21.3125 3.2957 20.0793 2.0625 18.5625 2.0625C18.5281 2.0625 18.498 2.07109 18.468 2.07109C18.1629 0.880859 17.0973 0 15.8125 0C14.2957 0 13.0625 1.22891 13.0625 2.75V18.9062C13.0625 20.6164 14.4461 22 16.1562 22C17.5227 22 18.6656 21.1105 19.0781 19.8859C19.2457 19.916 19.4176 19.9375 19.5938 19.9375C21.3039 19.9375 22.6875 18.5539 22.6875 16.8438C22.6875 16.6375 22.666 16.4355 22.6273 16.2379C23.8734 15.7223 24.75 14.4934 24.75 13.0625Z" fill="white"/>
</g>
<defs>
<clipPath id="clip0_1_454">
<rect width="24.75" height="22" fill="white"/>
</clipPath>
</defs>
</svg>
