
<svg viewBox="28.715 10.771 84.763 79.25" width="84.763" height="79.25" xmlns="http://www.w3.org/2000/svg">
  <defs>
    <filter id="filter0_d_270_1400" x="19.1185" y="20" width="88.7629" height="83.25" filterUnits="userSpaceOnUse" color-interpolation-filters="sRGB">
      <feFlood flood-opacity="0" result="BackgroundImageFix"></feFlood>
      <feColorMatrix in="SourceAlpha" type="matrix" values="0 0 0 0 0 0 0 0 0 0 0 0 0 0 0 0 0 0 127 0" result="hardAlpha"></feColorMatrix>
      <feOffset dy="4"></feOffset>
      <feGaussianBlur stdDeviation="2"></feGaussianBlur>
      <feComposite in2="hardAlpha" operator="out"></feComposite>
      <feColorMatrix type="matrix" values="0 0 0 0 0 0 0 0 0 0 0 0 0 0 0 0 0 0 0.25 0"></feColorMatrix>
      <feBlend mode="normal" in2="BackgroundImageFix" result="effect1_dropShadow_270_1400"></feBlend>
      <feBlend mode="normal" in="SourceGraphic" in2="effect1_dropShadow_270_1400" result="shape"></feBlend>
    </filter>
  </defs>
  <g filter="url(#filter0_d_270_1400)" transform="matrix(1, 0, 0, 1, 9.596519, -5.228971)">
    <path d="M46.1795 30C53.8775 16.6667 73.1225 16.6667 80.8205 30L101.172 65.25C108.87 78.5833 99.2476 95.25 83.8516 95.25H43.1484C27.7524 95.25 18.1299 78.5833 25.8279 65.25L46.1795 30Z" fill="#002768"></path>
    <path d="M62.9592 72.1817H66.2452L67.6844 46.1057H59.9612L61.4002 72.1817H62.9592Z" fill="white"></path>
    <path d="M67.4204 76.6279C67.4204 76.6868 67.419 76.7457 67.4161 76.8048C67.4131 76.8637 67.4088 76.9226 67.4032 76.9813C67.3974 77.0399 67.3901 77.0984 67.3814 77.1569C67.3729 77.2151 67.3628 77.2732 67.3514 77.331C67.3397 77.3891 67.3269 77.4465 67.3126 77.5038C67.2983 77.561 67.2825 77.6178 67.2655 77.6744C67.2485 77.7308 67.2301 77.7868 67.2102 77.8424C67.1903 77.8979 67.1691 77.9529 67.1465 78.0074C67.1241 78.0619 67.1003 78.1158 67.075 78.1691C67.0499 78.2224 67.0233 78.2753 66.9956 78.3271C66.9678 78.3792 66.9387 78.4306 66.9087 78.4812C66.8784 78.5318 66.8469 78.5815 66.8141 78.6307C66.7814 78.6798 66.7476 78.7279 66.7123 78.7754C66.6773 78.8227 66.6412 78.8691 66.6039 78.9147C66.5664 78.9604 66.528 79.0051 66.4884 79.0489C66.449 79.0924 66.4084 79.1351 66.3667 79.177C66.325 79.2187 66.2825 79.2593 66.2388 79.2989C66.1952 79.3386 66.1506 79.3771 66.105 79.4146C66.0596 79.452 66.0132 79.4883 65.9659 79.5235C65.9186 79.5585 65.8705 79.5925 65.8216 79.6253C65.7724 79.6581 65.7229 79.6896 65.6723 79.7199C65.6217 79.7503 65.5705 79.7794 65.5187 79.8071C65.4668 79.8349 65.4142 79.8615 65.3609 79.8868C65.3078 79.9119 65.2539 79.9359 65.1996 79.9585C65.145 79.9809 65.0903 80.0023 65.0347 80.0222C64.9794 80.0421 64.9234 80.0605 64.867 80.0775C64.8108 80.0947 64.754 80.1105 64.697 80.1248C64.6397 80.1391 64.5823 80.152 64.5247 80.1636C64.4668 80.175 64.4087 80.1851 64.3507 80.1938C64.2924 80.2026 64.234 80.2096 64.1753 80.2154C64.1168 80.2212 64.0581 80.2256 63.9992 80.2285C63.9404 80.2314 63.8817 80.2328 63.8228 80.2328C63.7639 80.2328 63.705 80.2314 63.6461 80.2285C63.5875 80.2256 63.5286 80.2212 63.4701 80.2154C63.4114 80.2096 63.353 80.2026 63.2949 80.1938C63.2366 80.1851 63.1786 80.175 63.1207 80.1636C63.0631 80.152 63.0057 80.1391 62.9484 80.1248C62.8914 80.1105 62.8346 80.0947 62.7784 80.0775C62.722 80.0605 62.666 80.0421 62.6107 80.0222C62.5553 80.0023 62.5004 79.9809 62.4458 79.9585C62.3915 79.9359 62.3378 79.9119 62.2845 79.8868C62.2312 79.8615 62.1788 79.8349 62.1267 79.8071C62.0749 79.7794 62.0237 79.7503 61.9731 79.7199C61.9227 79.6896 61.8729 79.6581 61.824 79.6253C61.7749 79.5925 61.7268 79.5585 61.6795 79.5235C61.6322 79.4883 61.5858 79.452 61.5404 79.4146C61.4947 79.3771 61.4502 79.3386 61.4066 79.2989C61.3631 79.2593 61.3204 79.2187 61.2787 79.177C61.237 79.1351 61.1966 79.0924 61.157 79.0489C61.1174 79.0051 61.079 78.9604 61.0417 78.9147C61.0044 78.8691 60.9681 78.8227 60.9331 78.7754C60.898 78.7279 60.864 78.6798 60.8312 78.6307C60.7987 78.5815 60.7672 78.5318 60.7369 78.4812C60.7066 78.4306 60.6776 78.3792 60.6498 78.3271C60.622 78.2753 60.5955 78.2224 60.5704 78.1691C60.5453 78.1158 60.5215 78.0619 60.4989 78.0074C60.4763 77.9529 60.4551 77.8979 60.4352 77.8424C60.4155 77.7868 60.3971 77.7308 60.3799 77.6744C60.3629 77.6178 60.3471 77.561 60.3328 77.5038C60.3185 77.4465 60.3056 77.3891 60.294 77.331C60.2826 77.2732 60.2727 77.2151 60.264 77.1569C60.2552 77.0984 60.248 77.0399 60.2424 76.9813C60.2366 76.9226 60.2322 76.8637 60.2293 76.8048C60.2264 76.7457 60.225 76.6868 60.225 76.6279C60.225 76.5689 60.2264 76.51 60.2293 76.4509C60.2322 76.392 60.2366 76.3333 60.2424 76.2744C60.248 76.2157 60.2552 76.1573 60.264 76.0988C60.2727 76.0405 60.2826 75.9825 60.294 75.9246C60.3056 75.8668 60.3185 75.8091 60.3328 75.7519C60.3471 75.6947 60.3629 75.6379 60.3799 75.5815C60.3971 75.5249 60.4155 75.4689 60.4352 75.4133C60.4551 75.3578 60.4763 75.3028 60.4989 75.2483C60.5215 75.1937 60.5453 75.1398 60.5704 75.0866C60.5955 75.0333 60.622 74.9806 60.6498 74.9286C60.6776 74.8765 60.7066 74.8251 60.7369 74.7745C60.7672 74.7239 60.7987 74.6741 60.8312 74.625C60.864 74.5761 60.898 74.5278 60.9331 74.4803C60.9681 74.433 61.0044 74.3866 61.0417 74.3409C61.079 74.2953 61.1174 74.2505 61.157 74.207C61.1966 74.1632 61.237 74.1205 61.2787 74.0787C61.3204 74.037 61.3631 73.9963 61.4066 73.9567C61.4502 73.9171 61.4947 73.8786 61.5404 73.8412C61.5858 73.8037 61.6322 73.7674 61.6795 73.7324C61.7268 73.6971 61.7749 73.6631 61.824 73.6304C61.8729 73.5976 61.9227 73.5661 61.9731 73.5358C62.0237 73.5053 62.0749 73.4763 62.1267 73.4485C62.1788 73.4208 62.2312 73.3942 62.2845 73.3689C62.3378 73.3438 62.3915 73.3198 62.4458 73.2974C62.5004 73.2748 62.5553 73.2534 62.6107 73.2335C62.666 73.2138 62.722 73.1952 62.7784 73.1782C62.8346 73.1609 62.8914 73.1452 62.9484 73.1309C63.0057 73.1166 63.0631 73.1037 63.1207 73.0921C63.1786 73.0807 63.2366 73.0705 63.2949 73.0618C63.353 73.0533 63.4114 73.0461 63.4701 73.0403C63.5286 73.0345 63.5875 73.0301 63.6461 73.0272C63.705 73.0243 63.7639 73.0229 63.8228 73.0229C63.8817 73.0229 63.9404 73.0243 63.9992 73.0272C64.0581 73.0301 64.1168 73.0345 64.1753 73.0403C64.234 73.0461 64.2924 73.0533 64.3507 73.0618C64.4087 73.0705 64.4668 73.0807 64.5247 73.0921C64.5823 73.1037 64.6397 73.1166 64.697 73.1309C64.754 73.1452 64.8108 73.1609 64.867 73.1782C64.9234 73.1952 64.9794 73.2138 65.0347 73.2335C65.0901 73.2534 65.145 73.2748 65.1996 73.2974C65.2539 73.3198 65.3078 73.3438 65.3609 73.3689C65.4142 73.3942 65.4668 73.4208 65.5187 73.4485C65.5705 73.4763 65.6217 73.5053 65.6723 73.5358C65.7229 73.5661 65.7724 73.5976 65.8216 73.6304C65.8705 73.6631 65.9186 73.6971 65.9659 73.7324C66.0132 73.7674 66.0596 73.8037 66.105 73.8412C66.1506 73.8786 66.1952 73.9171 66.2388 73.9567C66.2825 73.9963 66.325 74.037 66.3667 74.0787C66.4084 74.1205 66.449 74.1632 66.4884 74.207C66.528 74.2505 66.5664 74.2953 66.6039 74.3409C66.6412 74.3866 66.6773 74.433 66.7123 74.4803C66.7476 74.5278 66.7814 74.5761 66.8141 74.625C66.8469 74.6741 66.8784 74.7239 66.9087 74.7745C66.9387 74.8251 66.9678 74.8765 66.9956 74.9286C67.0233 74.9806 67.0499 75.0333 67.075 75.0866C67.1003 75.1398 67.1241 75.1937 67.1465 75.2483C67.1691 75.3028 67.1903 75.3578 67.2102 75.4133C67.2299 75.4689 67.2485 75.5249 67.2655 75.5815C67.2825 75.6379 67.2983 75.6947 67.3126 75.7519C67.3269 75.8091 67.3397 75.8668 67.3514 75.9246C67.3628 75.9825 67.3729 76.0405 67.3814 76.0988C67.3901 76.1573 67.3974 76.2157 67.4032 76.2744C67.4088 76.3333 67.4131 76.392 67.4161 76.4509C67.419 76.51 67.4204 76.5689 67.4204 76.6279Z" fill="white"></path>
  </g>
</svg>