<svg width="16" height="15" viewBox="0 0 16 15" fill="none" xmlns="http://www.w3.org/2000/svg">
<path d="M8.49219 0C9.17969 0 9.84115 0.0911458 10.4766 0.273437C11.1172 0.450521 11.7161 0.703125 12.2734 1.03125C12.8307 1.35417 13.3359 1.74479 13.7891 2.20312C14.2474 2.65625 14.638 3.16146 14.9609 3.71875C15.2891 4.27604 15.5417 4.875 15.7188 5.51562C15.901 6.15104 15.9922 6.8125 15.9922 7.5C15.9922 8.1875 15.901 8.85156 15.7188 9.49219C15.5417 10.1276 15.2891 10.724 14.9609 11.2812C14.638 11.8385 14.2474 12.3464 13.7891 12.8047C13.3359 13.2578 12.8307 13.6484 12.2734 13.9766C11.7161 14.2995 11.1172 14.5521 10.4766 14.7344C9.84115 14.9115 9.17969 15 8.49219 15C7.80469 15 7.14063 14.9115 6.5 14.7344C5.86458 14.5521 5.26823 14.2995 4.71094 13.9766C4.15365 13.6484 3.64583 13.2578 3.1875 12.8047C2.73438 12.3464 2.34375 11.8385 2.01563 11.2812C1.69271 10.724 1.4401 10.1276 1.25781 9.49219C1.08073 8.85156 0.992188 8.1875 0.992188 7.5C0.992188 6.8125 1.08073 6.15104 1.25781 5.51562C1.4401 4.875 1.69271 4.27604 2.01563 3.71875C2.34375 3.16146 2.73438 2.65625 3.1875 2.20312C3.64583 1.74479 4.15365 1.35417 4.71094 1.03125C5.26823 0.703125 5.86458 0.450521 6.5 0.273437C7.14062 0.0911458 7.80469 0 8.49219 0ZM8.49219 10C8.6276 10 8.74479 10.0495 8.84375 10.1484C8.94271 10.2474 8.99219 10.3646 8.99219 10.5C8.99219 10.6354 8.94271 10.7526 8.84375 10.8516C8.74479 10.9505 8.6276 11 8.49219 11C8.35677 11 8.23958 10.9505 8.14063 10.8516C8.04167 10.7526 7.99219 10.6354 7.99219 10.5C7.99219 10.3646 8.04167 10.2474 8.14063 10.1484C8.23958 10.0495 8.35677 10 8.49219 10ZM8.49219 1C7.89323 1 7.3151 1.07812 6.75781 1.23437C6.20573 1.38542 5.6875 1.60417 5.20312 1.89062C4.72396 2.17187 4.28646 2.51042 3.89063 2.90625C3.5 3.29688 3.16146 3.73438 2.875 4.21875C2.59375 4.69792 2.375 5.21615 2.21875 5.77344C2.06771 6.32552 1.99219 6.90104 1.99219 7.5C1.99219 8.09896 2.06771 8.67708 2.21875 9.23438C2.375 9.78646 2.59375 10.3047 2.875 10.7891C3.16146 11.2682 3.5 11.7057 3.89063 12.1016C4.28646 12.4922 4.72396 12.8307 5.20313 13.1172C5.6875 13.3984 6.20573 13.6172 6.75781 13.7734C7.3151 13.9245 7.89323 14 8.49219 14C9.09115 14 9.66667 13.9245 10.2188 13.7734C10.776 13.6172 11.2943 13.3984 11.7734 13.1172C12.2578 12.8307 12.6953 12.4922 13.0859 12.1016C13.4818 11.7057 13.8203 11.2682 14.1016 10.7891C14.388 10.3047 14.6068 9.78646 14.7578 9.23437C14.9141 8.67708 14.9922 8.09896 14.9922 7.5C14.9922 6.90104 14.9141 6.32552 14.7578 5.77344C14.6068 5.21615 14.388 4.69792 14.1016 4.21875C13.8203 3.73437 13.4818 3.29687 13.0859 2.90625C12.6953 2.51042 12.2578 2.17187 11.7734 1.89062C11.2943 1.60417 10.776 1.38542 10.2188 1.23437C9.66667 1.07812 9.09115 1 8.49219 1ZM8.99219 9H7.99219V4H8.99219L8.99219 9Z" fill="#F1D765"/>
</svg>
