<svg width="38" height="31" viewBox="0 0 38 31" fill="none" xmlns="http://www.w3.org/2000/svg">
<path d="M30.8749 4.42854H28.0615L26.1557 1.03178C25.8255 0.44283 25.1091 0 24.1153 0H13.8847C12.8483 0 12.1762 0.44283 11.8443 1.03178L9.93847 4.42854H7.12488C3.18895 4.42854 0 7.64944 0 11.625V23.8035C0 27.7789 3.18895 31 7.12488 31H30.8749C34.8108 31 38 27.7789 38 23.8035V11.625C38 7.64944 34.8108 4.42854 30.8749 4.42854ZM19 28.0475C13.3497 28.0475 8.76914 23.4211 8.76914 17.7142H5.84617L10.2309 11.8094L14.6153 17.7142H11.6923C11.6923 21.7841 14.9706 25.0952 19 25.0952C20.8532 25.0952 22.5295 24.3717 23.8187 23.2188L25.5929 25.6089C23.8115 27.1278 21.5137 28.0475 19 28.0475ZM27.7691 23.6189L23.3847 17.7142H26.3077C26.3077 13.6444 23.0294 10.3333 19 10.3333C17.1468 10.3333 15.4703 11.0566 14.1813 12.2095L12.4071 9.81945C14.1885 8.30047 16.486 7.38082 19 7.38082C24.6503 7.38082 29.2309 12.0072 29.2309 17.7142H32.1538L27.7691 23.6189Z" fill="#002768"/>
</svg>
