<svg width="87" height="87" viewBox="0 0 87 87" fill="none" xmlns="http://www.w3.org/2000/svg">
<path d="M70.1748 18.1676H68.7536V16.7505C68.7536 7.51507 61.2425 0 52.0071 0H34.9181C25.6827 0 18.1676 7.51507 18.1676 16.7505V18.1676H16.7505C7.51507 18.1676 0 25.6827 0 34.9181V52.0032C0 56.5421 1.8148 60.6559 4.75548 63.6753C5.50737 61.9865 6.45611 60.3449 7.58199 58.7506C6.18448 56.861 5.34991 54.5305 5.34991 52.0032V34.9181C5.34991 28.6313 10.4636 23.5176 16.7505 23.5176H23.5176V16.7505C23.5176 10.4636 28.6313 5.34991 34.9181 5.34991H52.0071C58.29 5.34991 63.4037 10.4636 63.4037 16.7505V23.5176H70.1748C76.4576 23.5176 81.5714 28.6313 81.5714 34.9181V35.859C83.3822 36.0676 85.1695 36.3117 86.9213 36.6069V34.9181C86.9213 25.6827 79.4101 18.1676 70.1748 18.1676Z" fill="#51ADE5"/>
<path d="M34.9182 74.8869H52.0072C54.5976 74.8869 56.7194 72.765 56.7194 70.1708V56.7193H70.1749C72.7652 56.7193 74.8871 54.5974 74.8871 52.0031V37.5911C70.6119 37.8745 66.2186 38.4414 61.7662 39.3271C46.1141 42.445 32.6035 48.8302 23.2579 56.7193H30.2061V70.1708C30.2061 72.765 32.324 74.8869 34.9182 74.8869Z" fill="#51ADE5"/>
<path d="M74.8869 35.2802V34.9181C74.8869 32.3238 72.7651 30.2019 70.1748 30.2019H56.7193V16.7504C56.7193 14.1562 54.5974 12.0343 52.0071 12.0343H34.9181C32.3239 12.0343 30.2059 14.1562 30.2059 16.7504V30.2019H16.7505C14.1562 30.2019 12.0344 32.3238 12.0344 34.9181V52.0031C12.0344 52.4913 12.1131 52.9597 12.2509 53.4046C23.8049 42.4213 44.6771 35.0913 68.5096 35.0913C70.6629 35.0913 72.7887 35.1621 74.8869 35.2802Z" fill="#3871C1"/>
<path d="M81.5715 52.0033C81.5715 58.2901 76.4578 63.4038 70.1749 63.4038H63.4038V70.1709C63.4038 76.4577 58.2901 81.5715 52.0072 81.5715H34.9182C28.6314 81.5715 23.5177 76.4577 23.5177 70.1709V63.4038H16.7506C16.7151 63.4038 16.6797 63.3999 16.6403 63.3999C15.3216 65.0257 14.1721 66.687 13.2076 68.3719C14.3492 68.6199 15.5341 68.7537 16.7506 68.7537H18.1678V70.1709C18.1678 79.4102 25.6828 86.9214 34.9182 86.9214H52.0072C61.2426 86.9214 68.7537 79.4102 68.7537 70.1709V68.7537H70.1749C79.4102 68.7537 86.9214 61.2426 86.9214 52.0033V37.5676C85.1735 37.4534 83.3863 37.3943 81.5715 37.3865V52.0033Z" fill="#A8DDFD"/>
<path d="M70.2534 18.1676H68.8322V16.7505C68.8322 7.51507 61.3211 0 52.0857 0H34.9967C25.7613 0 18.2463 7.51507 18.2463 16.7505V18.1676H16.8291C7.59368 18.1676 0.0786133 25.6827 0.0786133 34.9181V52.0032C0.0786133 56.5421 1.89341 60.6559 4.83409 63.6753C5.58599 61.9865 6.53472 60.3449 7.6606 58.7506C6.26309 56.861 5.42852 54.5305 5.42852 52.0032V34.9181C5.42852 28.6313 10.5422 23.5176 16.8291 23.5176H23.5962V16.7505C23.5962 10.4636 28.7099 5.34991 34.9967 5.34991H52.0857C58.3686 5.34991 63.4823 10.4636 63.4823 16.7505V23.5176H70.2534C76.5363 23.5176 81.65 28.6313 81.65 34.9181V35.859C83.4608 36.0676 85.2481 36.3117 86.9999 36.6069V34.9181C86.9999 25.6827 79.4887 18.1676 70.2534 18.1676Z" fill="#51ADE5"/>
<path d="M34.9968 74.8869H52.0859C54.6762 74.8869 56.798 72.765 56.798 70.1708V56.7193H70.2535C72.8438 56.7193 74.9657 54.5974 74.9657 52.0031V37.5911C70.6905 37.8745 66.2972 38.4414 61.8448 39.3271C46.1927 42.445 32.6821 48.8302 23.3365 56.7193H30.2847V70.1708C30.2847 72.765 32.4026 74.8869 34.9968 74.8869Z" fill="#51ADE5"/>
<path d="M74.9656 35.2804V34.9182C74.9656 32.3239 72.8437 30.2021 70.2534 30.2021H56.7979V16.7505C56.7979 14.1563 54.6761 12.0344 52.0857 12.0344H34.9967C32.4025 12.0344 30.2846 14.1563 30.2846 16.7505V30.2021H16.8291C14.2348 30.2021 12.113 32.3239 12.113 34.9182V52.0032C12.113 52.4914 12.1917 52.9599 12.3295 53.4047C23.8836 42.4214 44.7557 35.0914 68.5882 35.0914C70.7415 35.0914 72.8673 35.1623 74.9656 35.2804Z" fill="#3871C1"/>
<path d="M81.6501 52.0033C81.6501 58.2901 76.5364 63.4038 70.2535 63.4038H63.4824V70.1709C63.4824 76.4577 58.3687 81.5715 52.0858 81.5715H34.9968C28.71 81.5715 23.5963 76.4577 23.5963 70.1709V63.4038H16.8292C16.7938 63.4038 16.7583 63.3999 16.719 63.3999C15.4002 65.0257 14.2507 66.687 13.2862 68.3719C14.4278 68.6199 15.6128 68.7537 16.8292 68.7537H18.2464V70.1709C18.2464 79.4102 25.7614 86.9214 34.9968 86.9214H52.0858C61.3212 86.9214 68.8323 79.4102 68.8323 70.1709V68.7537H70.2535C79.4889 68.7537 87 61.2426 87 52.0033V37.5676C85.2521 37.4534 83.4649 37.3943 81.6501 37.3865V52.0033Z" fill="#A8DDFD"/>
</svg>
