<svg width="275" height="30" viewBox="0 0 275 30" fill="none" xmlns="http://www.w3.org/2000/svg">
    <path d="M18.25 28.8366H10.8958L0 0.815796H7.60417L14.7708 21.4408L21.9375 0.815796H29.25L18.25 28.8366Z" fill="white"/>
    <path d="M52.6716 23.67H40.4216L38.38 28.8366H31.0466L43.1508 0.815796H50.4633L62.2758 28.8366H54.6716L52.6716 23.67ZM50.5883 18.2741L46.5883 7.89913L42.505 18.2741H50.5883Z" fill="white"/>
    <path d="M77.6714 0.503296C81.8641 0.503296 85.5464 1.54496 88.7131 3.6283L86.0464 9.1908C84.5724 8.33142 82.9943 7.6283 81.3172 7.08663C79.6349 6.54496 78.2183 6.27413 77.0672 6.27413C75.0099 6.27413 73.9839 6.95642 73.9839 8.3158C73.9839 9.1908 74.4891 9.89913 75.5047 10.4408C76.5151 10.972 77.7547 11.4304 79.2131 11.8158C80.6714 12.1908 82.1193 12.6595 83.5672 13.2116C85.0256 13.7533 86.2599 14.6439 87.2756 15.8783C88.286 17.1023 88.7964 18.6439 88.7964 20.5033C88.7964 23.2012 87.7391 25.3054 85.6297 26.8158C83.5308 28.3314 80.8485 29.0866 77.5881 29.0866C75.2651 29.0866 72.9735 28.6856 70.7131 27.8783C68.4474 27.0762 66.4735 25.9773 64.7964 24.5866L67.5464 19.1075C68.9631 20.347 70.6297 21.3575 72.5464 22.1491C74.4735 22.9304 76.1818 23.3158 77.6714 23.3158C78.8224 23.3158 79.7183 23.1075 80.3589 22.6908C80.9943 22.2741 81.3172 21.67 81.3172 20.8783C81.3172 20.1023 80.9474 19.4564 80.2131 18.9408C79.4735 18.4148 78.5568 18.0241 77.4631 17.7741C76.3797 17.5241 75.1922 17.1856 73.9006 16.7533C72.6193 16.3262 71.4318 15.8575 70.3381 15.3575C69.2547 14.847 68.3433 14.0398 67.6089 12.9408C66.8693 11.8314 66.5047 10.4981 66.5047 8.9408C66.5047 6.38871 67.5256 4.34705 69.5672 2.8158C71.6089 1.27413 74.3068 0.503296 77.6714 0.503296Z" fill="white"/>
    <path d="M116.129 6.545H107.692V28.8367H100.567V6.545H92.1917V0.77417H116.129V6.545Z" fill="white"/>
    <path d="M136.621 28.8366H129.266L118.371 0.815796H125.975L133.141 21.4408L140.308 0.815796H147.621L136.621 28.8366Z" fill="white"/>
    <path d="M159.542 28.8366H152.417V0.815796H159.542V28.8366Z" fill="white"/>
    <path d="M188.601 6.545H180.163V28.8367H173.038V6.545H164.663V0.77417H188.601V6.545Z" fill="white"/>
    <path d="M212.301 23.67H200.051L198.009 28.8366H190.676L202.78 0.815796H210.092L221.905 28.8366H214.301L212.301 23.67ZM210.217 18.2741L206.217 7.89913L202.134 18.2741H210.217Z" fill="white"/>
    <path d="M233.654 22.8783H245.55V28.8366H226.529V0.815796H233.654V22.8783Z" fill="white"/>
    <path d="M273.792 5.3783L258.834 23.1908H274.042V28.8366H249.313V24.2741L264.313 6.46163H249.834V0.815796H273.792V5.3783Z" fill="white"/>
</svg>
    