<svg width="20" height="17" viewBox="0 0 20 17" fill="none" xmlns="http://www.w3.org/2000/svg">
<g clip-path="url(#clip0_1_473)">
<path d="M19.9083 8.05554C19.9083 3.60687 15.4717 0 9.99999 0C4.52832 0 0.0908203 3.60687 0.0908203 8.05554C0.0908203 12.5042 4.52749 16.1111 9.99999 16.1111C11.6783 16.1111 13.2583 15.7701 14.6442 15.1713C15.1608 15.4089 15.7592 15.5459 16.3983 15.5459C18.3367 15.5459 19.9083 14.2939 19.9083 12.7499C19.9083 12.1149 19.6425 11.5295 19.1942 11.0603C19.6542 10.1319 19.9083 9.11753 19.9083 8.05554ZM2.07332 8.0589C2.07332 4.40168 5.63082 1.43724 10.0192 1.43724C14.4075 1.43724 17.965 4.40168 17.965 8.0589C17.965 8.77718 17.8267 9.46795 17.5725 10.1151C17.1955 10.0084 16.7987 9.95416 16.3992 9.95464C14.4608 9.95464 12.8892 11.2066 12.8892 12.7506C12.8892 13.2339 13.0433 13.6884 13.3142 14.0851C12.2846 14.4783 11.1594 14.682 10.02 14.6812C5.63082 14.6806 2.07332 11.7154 2.07332 8.0589ZM16.3992 14.6806C15.1375 14.6947 14.0325 13.83 14.05 12.809C14.05 11.7752 15.1017 10.9374 16.3992 10.9374C17.655 10.9206 18.7683 11.79 18.7483 12.809C18.7483 13.8428 17.6958 14.6806 16.3992 14.6806Z" fill="white"/>
</g>
<defs>
<clipPath id="clip0_1_473">
<rect width="20" height="16.1111" fill="white"/>
</clipPath>
</defs>
</svg>
