<svg width="51" height="51" viewBox="0 0 51 51" fill="none" xmlns="http://www.w3.org/2000/svg">
<circle cx="25.5" cy="25.5" r="25.5" fill="#9EA2FF"/>
<g clip-path="url(#clip0_1_380)">
<path d="M33.6328 28.5063C33.6328 33.0646 30.7633 35.9341 26.205 35.9341C21.6467 35.9341 18.7772 33.0646 18.7772 28.5063C18.7772 23.6148 24.102 17.0112 25.7351 15.1012C25.7932 15.0333 25.8653 14.9788 25.9465 14.9415C26.0276 14.9041 26.1159 14.8848 26.2053 14.8848C26.2946 14.8848 26.3829 14.9041 26.4641 14.9415C26.5452 14.9788 26.6173 15.0333 26.6754 15.1012C28.308 17.0112 33.6328 23.6148 33.6328 28.5063Z" stroke="white" stroke-width="1.5" stroke-miterlimit="10"/>
<path d="M30.7442 28.9189C30.7442 29.9039 30.3529 30.8486 29.6564 31.5451C28.9599 32.2416 28.0153 32.6329 27.0303 32.6329" stroke="white" stroke-width="1.5" stroke-linecap="round" stroke-linejoin="round"/>
</g>
<defs>
<clipPath id="clip0_1_380">
<rect width="26.4107" height="26.4107" fill="white" transform="translate(12.75 11.8392)"/>
</clipPath>
</defs>
</svg>
