<svg width="22" height="22" viewBox="0 0 22 22" fill="none" xmlns="http://www.w3.org/2000/svg">
<path d="M20.625 22C20.4388 22 20.1667 21.8818 19.8086 21.6455C19.4505 21.4092 19.0173 21.112 18.5088 20.7539C18.0003 20.3958 17.5599 20.1237 17.1875 19.9375C16.8724 19.7799 16.5143 19.6152 16.1133 19.4434C15.7122 19.2715 15.39 19.1318 15.1465 19.0244C14.903 18.917 14.6631 18.7988 14.4268 18.6699C14.1904 18.541 14.0186 18.4121 13.9111 18.2832C13.8037 18.1543 13.75 18.0182 13.75 17.875V11.6445L11 8.89453L8.25 11.6445V17.875C8.25 18.0182 8.19629 18.1543 8.08887 18.2832C7.98145 18.4121 7.80957 18.541 7.57324 18.6699C7.33691 18.7988 7.09701 18.917 6.85352 19.0244C6.61003 19.1318 6.28776 19.2715 5.88672 19.4434C5.48568 19.6152 5.1276 19.7799 4.8125 19.9375C4.4401 20.1237 3.99967 20.3958 3.49121 20.7539C2.98275 21.112 2.54948 21.4092 2.19141 21.6455C1.83333 21.8818 1.5612 22 1.375 22C0.759115 22 0.375977 21.5703 0.225586 20.7109C0.0751953 19.8516 0 18.4479 0 16.5C0 13.9219 0.236328 11.7806 0.708984 10.0762C1.18164 8.37175 1.86198 6.84635 2.75 5.5C3.36589 4.58333 4.08203 3.89583 4.89844 3.4375C5.71484 2.97917 6.3737 2.75 6.875 2.75C7.26172 2.75 7.58756 2.88607 7.85254 3.1582C8.11751 3.43034 8.25 3.7526 8.25 4.125V7.60547L9.625 6.23047V1.375C9.625 1.0026 9.76107 0.680339 10.0332 0.408203C10.3053 0.136068 10.6312 0 11.0107 0C11.3903 0 11.7126 0.136068 11.9775 0.408203C12.2425 0.680339 12.375 1.0026 12.375 1.375V6.23047L13.75 7.60547V4.125C13.75 3.7526 13.8861 3.43034 14.1582 3.1582C14.4303 2.88607 14.7526 2.75 15.125 2.75C15.6263 2.75 16.2852 2.97917 17.1016 3.4375C17.918 3.89583 18.6341 4.58333 19.25 5.5C20.138 6.84635 20.8184 8.37175 21.291 10.0762C21.7637 11.7806 22 13.9219 22 16.5C22 17.1732 21.9964 17.6745 21.9893 18.0039C21.9821 18.3333 21.9678 18.7594 21.9463 19.2822C21.9248 19.805 21.8854 20.1917 21.8281 20.4424C21.7708 20.693 21.6921 20.958 21.5918 21.2373C21.4915 21.5166 21.3626 21.7135 21.2051 21.8281C21.0475 21.9427 20.8542 22 20.625 22Z" fill="white"/>
</svg>
