<svg width="20" height="20" viewBox="0 0 20 20" fill="none" xmlns="http://www.w3.org/2000/svg">
<path d="M10.0001 0C6.45232 0 3.57568 2.87663 3.57568 6.42437C3.57568 9.55355 5.81418 12.1607 8.7766 12.7324V14.8003H6.02135V17.246H8.77658V20H11.2223V17.246H13.9775V14.8003H11.2223V12.7323C14.1853 12.1612 16.4244 9.55397 16.4244 6.42435C16.4244 2.87663 13.5478 0 10.0001 0ZM10.0001 2.55463C12.1372 2.55463 13.8698 4.28718 13.8698 6.42437C13.8698 8.56155 12.1373 10.2941 10.0001 10.2941C7.86285 10.2941 6.13032 8.56155 6.13032 6.42437C6.13032 4.28718 7.86287 2.55463 10.0001 2.55463Z" fill="currentColor"/>
</svg>
