<svg width="51" height="51" viewBox="0 0 51 51" fill="none" xmlns="http://www.w3.org/2000/svg">
<circle cx="25.5" cy="25.5" r="25.5" fill="#9EA2FF"/>
<g clip-path="url(#clip0_1_372)">
<path d="M36.5894 20.537C36.7753 19.8849 36.8155 19.1999 36.7074 18.5305C36.5993 17.8611 36.3454 17.2237 35.9637 16.6632C35.582 16.1028 35.0818 15.6331 34.4986 15.2873C33.9153 14.9415 33.2632 14.7281 32.5883 14.6621C32.3175 13.8852 31.8119 13.2116 31.1414 12.7347C30.4709 12.2577 29.6688 12.001 28.846 12C27.8683 12.0033 26.9268 12.3705 26.205 13.03C25.4832 12.3705 24.5417 12.0033 23.564 12C21.846 12 20.3816 13.0973 19.8336 14.6608C19.1575 14.7251 18.5039 14.9373 17.9191 15.2825C17.3343 15.6277 16.8326 16.0974 16.4496 16.6582C16.0666 17.219 15.8117 17.8572 15.703 18.5275C15.5943 19.1979 15.6344 19.8839 15.8206 20.537C14.9729 20.9881 14.2631 21.6601 13.7665 22.482C13.2699 23.3038 13.005 24.2448 13 25.205C13 26.6245 13.5652 27.9596 14.5476 28.9447C14.3973 29.445 14.3208 29.9646 14.3205 30.487C14.3205 33.0712 16.185 35.2276 18.6861 35.6818C19.0532 36.4933 19.6461 37.182 20.394 37.6658C21.1418 38.1495 22.0131 38.4079 22.9038 38.41C24.1965 38.41 25.3652 37.8726 26.205 37.0116C26.6337 37.4538 27.1467 37.8054 27.7138 38.0456C28.2809 38.2858 28.8904 38.4097 29.5063 38.41C30.3953 38.4084 31.2652 38.151 32.0121 37.6687C32.759 37.1864 33.3514 36.4994 33.7186 35.6898C34.4554 35.5599 35.1563 35.2752 35.7749 34.8545C36.3936 34.4338 36.9159 33.8866 37.3075 33.2492C37.6992 32.6117 37.9511 31.8984 38.0467 31.1564C38.1424 30.4144 38.0795 29.6606 37.8624 28.9447C38.3533 28.4535 38.7427 27.8705 39.0083 27.2288C39.2738 26.5871 39.4103 25.8994 39.41 25.205C39.405 24.2448 39.1401 23.3038 38.6435 22.482C38.1469 21.6601 37.4371 20.9881 36.5894 20.537ZM22.9038 35.769C21.9649 35.769 21.1475 35.1035 20.9626 34.187L20.6827 33.128H19.6025C18.146 33.128 16.9615 31.9435 16.9615 30.487C16.9615 30.0222 17.0737 29.5864 17.2956 29.1916L17.8977 28.1141L16.8625 27.4406C16.4885 27.1995 16.1808 26.8686 15.9674 26.4781C15.7541 26.0876 15.6419 25.65 15.641 25.205C15.641 23.9149 16.5957 22.7964 17.8621 22.601L20.0977 22.2576L18.6993 20.4803C18.4502 20.1592 18.3058 19.7694 18.2855 19.3636C18.2653 18.9578 18.3701 18.5555 18.5859 18.2113C18.8017 17.867 19.118 17.5973 19.4921 17.4386C19.8661 17.28 20.2799 17.2401 20.6774 17.3243L22.2435 17.5553V15.9615C22.2435 15.6113 22.3826 15.2754 22.6303 15.0278C22.8779 14.7801 23.2138 14.641 23.564 14.641C23.9142 14.641 24.2501 14.7801 24.4977 15.0278C24.7454 15.2754 24.8845 15.6113 24.8845 15.9615V33.7882C24.8845 34.8803 23.9958 35.769 22.9038 35.769ZM35.5475 27.4393L34.5123 28.1127L35.1144 29.1903C35.3363 29.5864 35.4485 30.0222 35.4485 30.487C35.4485 31.9435 34.264 33.128 32.7415 33.128H31.6613L31.4474 34.187C31.3551 34.6337 31.1116 35.0349 30.758 35.3231C30.4045 35.6112 29.9624 35.7687 29.5063 35.769C28.4142 35.769 27.5255 34.8803 27.5255 33.7882V15.9615C27.5255 15.2326 28.1171 14.641 28.846 14.641C29.5749 14.641 30.1665 15.2326 30.1665 16.0275V17.6214L31.7326 17.3243C32.1301 17.2401 32.5439 17.28 32.9179 17.4386C33.292 17.5973 33.6083 17.867 33.8241 18.2113C34.0399 18.5555 34.1447 18.9578 34.1245 19.3636C34.1042 19.7694 33.9598 20.1592 33.7107 20.4803L32.3123 22.259L34.5479 22.6023C35.1666 22.7025 35.7295 23.0192 36.1363 23.4959C36.5431 23.9726 36.7674 24.5783 36.769 25.205C36.769 26.1069 36.3121 26.9415 35.5475 27.4393Z" fill="white"/>
</g>
<defs>
<clipPath id="clip0_1_372">
<rect width="26.4107" height="26.4107" fill="white" transform="translate(12.75 11.8392)"/>
</clipPath>
</defs>
</svg>
