<svg width="341" height="453" viewBox="0 0 341 453" fill="none" xmlns="http://www.w3.org/2000/svg" xmlns:xlink="http://www.w3.org/1999/xlink">
<path d="M209.083 441.002C187.458 455.686 159.141 455.988 137.208 441.767L57.6094 390.159C42.4747 380.346 32.098 364.686 28.9612 346.923L1.51819 191.524C-1.10309 176.681 1.51577 161.388 8.92661 148.263L73.1449 34.5248C84.5505 14.3242 105.857 1.73344 129.054 1.48651L207.862 0.647592C231.059 0.40066 252.629 12.5351 264.462 32.4883L331.087 144.833C338.776 157.798 341.72 173.032 339.415 187.928L315.286 343.875C312.528 361.701 302.487 377.579 287.565 387.711L209.083 441.002Z" fill="#ffffff"/>
</svg>
