<svg width="41" height="41" viewBox="0 0 41 41" fill="none" xmlns="http://www.w3.org/2000/svg">
<path d="M20.5061 8.41504C13.828 8.41504 8.41492 13.8281 8.41492 20.5062C8.41492 27.1842 13.828 32.5974 20.5061 32.5974C27.184 32.5974 32.5973 27.1842 32.5973 20.5062C32.5973 13.8281 27.184 8.41504 20.5061 8.41504ZM20.5061 31.6674C14.3516 31.6674 9.34501 26.6606 9.34501 20.5062C9.34501 14.3517 14.3516 9.34513 20.5061 9.34513C26.6605 9.34513 31.6672 14.3517 31.6672 20.5062C31.6672 26.6606 26.6605 31.6674 20.5061 31.6674Z" fill="white"/>
<path d="M19.576 13.0654H21.4362V14.9256H19.576V13.0654Z" fill="white"/>
<path d="M21.4362 16.7856H18.6459V17.7157H19.576V27.0167H18.6459V27.9468H22.3663V27.0167H21.4362V16.7856Z" fill="white"/>
</svg>
