<svg width="33" height="11" viewBox="0 0 33 11" fill="none" xmlns="http://www.w3.org/2000/svg">
<path d="M3.3 11C5.12254 11 6.6 9.52253 6.6 7.69999C6.6 5.87745 5.12254 4.39999 3.3 4.39999C1.47746 4.39999 0 5.87745 0 7.69999C0 9.52253 1.47746 11 3.3 11Z" fill="black"/>
<path d="M29.7 11C31.5225 11 33 9.52253 33 7.69999C33 5.87745 31.5225 4.39999 29.7 4.39999C27.8775 4.39999 26.4 5.87745 26.4 7.69999C26.4 9.52253 27.8775 11 29.7 11Z" fill="black"/>
<path d="M16.5 6.6C18.3225 6.6 19.8 5.12254 19.8 3.3C19.8 1.47746 18.3225 0 16.5 0C14.6775 0 13.2 1.47746 13.2 3.3C13.2 5.12254 14.6775 6.6 16.5 6.6Z" fill="black"/>
</svg>
