<svg width="51" height="51" viewBox="0 0 51 51" fill="none" xmlns="http://www.w3.org/2000/svg">
<circle cx="25.5" cy="25.5" r="25.5" fill="#9EA2FF"/>
<g clip-path="url(#clip0_1_341)">
<path d="M37.2103 30.7071C37.2092 35.1087 37.2092 35.1087 32.8086 35.1087C28.4069 35.1087 27.3065 31.8075 27.3065 28.5062C27.3065 28.0903 27.2867 27.496 27.2779 26.8006L29.5041 28.087L29.5063 28.5062C29.5063 31.561 30.4042 32.9079 32.8075 32.9079C34.062 32.9079 34.5792 32.9002 34.9676 32.8661C35.0006 32.4798 35.0083 31.9615 35.0083 30.7071C35.0083 27.1802 34.2347 24.0682 32.9891 22.0138C32.0669 20.493 31.2141 19.9857 30.753 20.1398C30.4306 20.2476 30.0873 20.855 29.8386 21.9257L27.8688 20.789C28.2749 19.4718 28.9494 18.422 30.0565 18.0523C33.3577 16.9518 37.2125 22.4539 37.2092 30.7071H37.2103ZM22.3535 18.0523C23.4617 18.422 24.1362 19.4718 24.5423 20.789L22.5725 21.9257C22.3238 20.855 21.9794 20.2476 21.6581 20.1398C21.1959 19.9857 20.3431 20.4919 19.422 22.0127C18.1753 24.0682 17.4017 27.1802 17.4017 30.7071C17.4017 31.9615 17.4094 32.4787 17.4435 32.8661C17.8297 32.9002 18.348 32.9079 19.6025 32.9079C22.0058 32.9079 22.9038 31.561 22.9038 28.5062L22.9082 28.0859L25.1343 26.8006C25.1233 27.4971 25.1046 28.0903 25.1046 28.5062C25.1046 31.8075 24.0042 35.1087 19.6025 35.1087C15.2008 35.1087 15.2008 35.1087 15.2008 30.7071C15.2008 22.4539 19.0523 16.9518 22.3535 18.0523ZM27.3054 14.2008V22.3681L32.473 25.3524L31.3726 27.2583L26.205 24.2751L21.0374 27.2583L19.937 25.3524L25.1046 22.3681V14.2008H27.3054Z" fill="white"/>
</g>
<defs>
<clipPath id="clip0_1_341">
<rect width="26.4107" height="26.4107" fill="white" transform="translate(12.75 11.8392)"/>
</clipPath>
</defs>
</svg>
