<svg viewBox="0 0 51 51" width="51" height="51" xmlns="http://www.w3.org/2000/svg">
  <circle cx="25.5" cy="25.5" r="25.5" fill="#9EA2FF"></circle>
  <g id="surface1" transform="matrix(1.852999, 0, 0, 1.852999, -3.178094, -4.605406)" style="">
    <path style=" stroke:none;fill-rule:evenodd;fill:rgb(100%,100%,100%);fill-opacity:1;" d="M 17.379 15.172 C 15.379 17.172 13.432 19.111 13.354 19.06 C 13.276 19.009 12.287 17.993 11.498 17.203 C 10.709 16.414 9.991 15.687 9.98 15.687 C 9.925 15.687 8.508 17.145 8.508 17.199 C 8.508 17.266 13.234 21.992 13.301 21.992 C 13.328 21.992 13.512 21.836 13.707 21.641 C 13.902 21.445 15.879 19.465 18.102 17.242 C 20.324 15.02 22.234 13.109 22.348 12.996 L 22.551 12.793 L 22.32 12.559 C 21.734 11.965 21.201 11.48 21.177 11.48 C 21.165 11.48 19.375 13.216 17.371 15.216"></path>
  </g>
</svg>